<svg width="1189" height="391" viewBox="0 0 1189 391" fill="none" xmlns="http://www.w3.org/2000/svg">
<mask id="path-1-outside-1_12_410" maskUnits="userSpaceOnUse" x="0" y="0" width="1189" height="391" fill="black">
<rect fill="white" width="1189" height="391"/>
<path d="M2 36C2 16.67 17.67 1 37 1H1154C1173.33 1 1189 16.67 1189 36V356C1189 375.33 1173.33 391 1154 391H37C17.6701 391 2 375.33 2 356V36Z"/>
</mask>
<path d="M0 36C0 16.1177 16.1177 0 36 0H1153C1172.88 0 1189 16.1177 1189 36C1189 17.2223 1173.33 2 1154 2H37C18.7746 2 4 17.2223 4 36H0ZM1189 391H2H1189ZM37 391C16.5655 391 0 374.435 0 354V36C0 16.1177 16.1177 0 36 0L37 2C18.7746 2 4 17.2223 4 36V356C4 375.33 18.7746 391 37 391ZM1189 1V391V1Z" fill="url(#paint0_radial_12_410)" mask="url(#path-1-outside-1_12_410)"/>
<defs>
<radialGradient id="paint0_radial_12_410" cx="0" cy="0" r="1" gradientUnits="userSpaceOnUse" gradientTransform="translate(31.9243 1.0001) rotate(52.9814) scale(400.102 1226.89)">
<stop stop-color="#A8715C"/>
<stop offset="0.275641" stop-color="#54362A"/>
<stop offset="0.875857" stop-color="#221518" stop-opacity="0"/>
</radialGradient>
</defs>
</svg>
