<svg width="21" height="36" viewBox="0 0 21 36" fill="none" xmlns="http://www.w3.org/2000/svg">
<path d="M4.6875 34.8281L20.4844 19.0781C20.6719 18.8906 20.8044 18.6875 20.8819 18.4688C20.9606 18.25 21 18.0156 21 17.7656C21 17.5156 20.9606 17.2812 20.8819 17.0625C20.8044 16.8438 20.6719 16.6406 20.4844 16.4531L4.6875 0.65625C4.25 0.21875 3.70313 0 3.04688 0C2.39063 0 1.82813 0.234375 1.35938 0.703125C0.890627 1.17187 0.656252 1.71875 0.656252 2.34375C0.656252 2.96875 0.890627 3.51562 1.35938 3.98437L15.1406 17.7656L1.35938 31.5469C0.921877 31.9844 0.703127 32.5231 0.703127 33.1631C0.703127 33.8044 0.937502 34.3594 1.40625 34.8281C1.875 35.2969 2.42188 35.5312 3.04688 35.5312C3.67188 35.5312 4.21875 35.2969 4.6875 34.8281Z" fill="#F8E4BE"/>
</svg>
