<svg width="23" height="22" viewBox="0 0 23 22" fill="none" xmlns="http://www.w3.org/2000/svg">
<path d="M11.5457 17.8965L6.23265 21.0971C5.99794 21.2465 5.75256 21.3105 5.49651 21.2891C5.24047 21.2678 5.01642 21.1825 4.82439 21.0331C4.63235 20.8837 4.48299 20.6972 4.3763 20.4736C4.26962 20.2492 4.24828 19.9982 4.31229 19.7208L5.72056 13.6717L1.01567 9.60693C0.802295 9.41489 0.669149 9.19597 0.616233 8.95016C0.562463 8.70521 0.578252 8.46538 0.663602 8.23067C0.748951 7.99596 0.876975 7.80392 1.04767 7.65456C1.21837 7.5052 1.45308 7.40918 1.75181 7.3665L7.96098 6.8224L10.3614 1.12532C10.4681 0.869275 10.6337 0.677238 10.8582 0.549214C11.0818 0.42119 11.3109 0.357178 11.5457 0.357178C11.7804 0.357178 12.01 0.42119 12.2344 0.549214C12.458 0.677238 12.6232 0.869275 12.7299 1.12532L15.1303 6.8224L21.3395 7.3665C21.6382 7.40918 21.8729 7.5052 22.0436 7.65456C22.2143 7.80392 22.3424 7.99596 22.4277 8.23067C22.5131 8.46538 22.5293 8.70521 22.4764 8.95016C22.4226 9.19597 22.289 9.41489 22.0756 9.60693L17.3708 13.6717L18.779 19.7208C18.843 19.9982 18.8217 20.2492 18.715 20.4736C18.6083 20.6972 18.459 20.8837 18.2669 21.0331C18.0749 21.1825 17.8509 21.2678 17.5948 21.2891C17.3388 21.3105 17.0934 21.2465 16.8587 21.0971L11.5457 17.8965Z" fill="url(#paint0_linear_12_3559)"/>
<defs>
<linearGradient id="paint0_linear_12_3559" x1="16.6535" y1="-4.50951" x2="-4.56576" y2="3.25875" gradientUnits="userSpaceOnUse">
<stop stop-color="#E0A872"/>
<stop offset="0.444501" stop-color="#F8E4BE"/>
<stop offset="0.549712" stop-color="#FFF3E0"/>
<stop offset="1" stop-color="#E0A872"/>
</linearGradient>
</defs>
</svg>
