<svg width="39" height="39" viewBox="0 0 39 39" fill="none" xmlns="http://www.w3.org/2000/svg">
<path d="M20.8125 25.6875L25.6875 20.8125C26.0625 20.4375 26.25 20 26.25 19.5C26.25 19 26.0625 18.5625 25.6875 18.1875L20.7656 13.2656C20.4219 12.9219 19.9925 12.7575 19.4775 12.7725C18.9612 12.7887 18.5312 12.9688 18.1875 13.3125C17.8438 13.6562 17.6719 14.0937 17.6719 14.625C17.6719 15.1562 17.8438 15.5938 18.1875 15.9375L19.875 17.625H13.8281C13.2969 17.625 12.8594 17.8044 12.5156 18.1631C12.1719 18.5231 12 18.9688 12 19.5C12 20.0312 12.18 20.4762 12.54 20.835C12.8987 21.195 13.3438 21.375 13.875 21.375H19.875L18.1406 23.1094C17.7969 23.4531 17.6325 23.8831 17.6475 24.3994C17.6638 24.9144 17.8438 25.3438 18.1875 25.6875C18.5312 26.0312 18.9688 26.2031 19.5 26.2031C20.0312 26.2031 20.4688 26.0312 20.8125 25.6875ZM19.5 38.25C16.9062 38.25 14.4688 37.7575 12.1875 36.7725C9.90625 35.7887 7.92188 34.4531 6.23438 32.7656C4.54688 31.0781 3.21125 29.0938 2.2275 26.8125C1.2425 24.5312 0.75 22.0938 0.75 19.5C0.75 16.9062 1.2425 14.4688 2.2275 12.1875C3.21125 9.90625 4.54688 7.92188 6.23438 6.23438C7.92188 4.54688 9.90625 3.21062 12.1875 2.22562C14.4688 1.24187 16.9062 0.75 19.5 0.75C22.0938 0.75 24.5312 1.24187 26.8125 2.22562C29.0938 3.21062 31.0781 4.54688 32.7656 6.23438C34.4531 7.92188 35.7887 9.90625 36.7725 12.1875C37.7575 14.4688 38.25 16.9062 38.25 19.5C38.25 22.0938 37.7575 24.5312 36.7725 26.8125C35.7887 29.0938 34.4531 31.0781 32.7656 32.7656C31.0781 34.4531 29.0938 35.7887 26.8125 36.7725C24.5312 37.7575 22.0938 38.25 19.5 38.25ZM19.5 34.5C23.6562 34.5 27.1956 33.0394 30.1181 30.1181C33.0394 27.1956 34.5 23.6562 34.5 19.5C34.5 15.3438 33.0394 11.8044 30.1181 8.88188C27.1956 5.96063 23.6562 4.5 19.5 4.5C15.3438 4.5 11.805 5.96063 8.88375 8.88188C5.96125 11.8044 4.5 15.3438 4.5 19.5C4.5 23.6562 5.96125 27.1956 8.88375 30.1181C11.805 33.0394 15.3438 34.5 19.5 34.5Z" fill="#F8E4BE"/>
</svg>
